{"title":"Cannibal Holocaust 1980 DVDrip English Klam","uid":6522746,"size":1054973206,"categoryP":"video","categoryS":"movies","magnet":"?xt=urn:btih:dec31d52777bda2680222f7b92adf629907392d2&amp;dn=Cannibal+Holocaust+1980+DVDrip+English+Klam&amp;tr=udp%3A%2F%2Ftracker.openbittorrent.com%3A80&amp;tr=udp%3A%2F%2Fopen.demonii.com%3A1337&amp;tr=udp%3A%2F%2Ftracker.coppersurfer.tk%3A6969&amp;tr=udp%3A%2F%2Fexodus.desync.com%3A6969","seeders":0,"leechers":1,"uploader":"Klambake","files":-1,"time":1310049869,"description":"With: Robert Kerman, Francesca Ciardi and Perry Pirkanen\n\nEen groep jonge journalisten gaat op expeditie naar het Amazone-gebied om een documentaire te maken over de laatst nog overgebleven stammen die kannibalisme bedrijven. De groep verdwijnt spoorloos. Twee maanden na hun vertrek wordt een reddingsteam gestuurd onder leiding van professor Monroe. Deze komt in contact met twee rivaliserende stammen, hun schokkende levenswijze en barbaarse rituelen. Al spoedig ontdekt Monroe de stoffelijke resten van de vermisten en vindt hij bij een van de stammen filmmateriaal.\n\nAn anthropologist heads a rescue party into the South American jungle to find a missing film team making a documentary on cannibal tribes but can only return with their footage, which reveals their crueler intentions.\n\n------------------ Dutch Friends ------------------\nYou can find my Friends at: http://www.Film-Test.nl \n------ They got my dutchs subs ---- and more ------\n\nGeneral:\n\nComplete name                    : Cannibal Holocaust.avi\nFormat                           : AVI\nFormat/Info                      : Audio Video Interleave\nFile size                        : 1 006 MiB\nDuration                         : 1h 31mn\nOverall bit rate                 : 1 532 Kbps\n\nVideo:\n\nFormat                           : MPEG-4 Visual\nFormat profile                   : Simple@L3\nFormat settings, BVOP            : No\nFormat settings, QPel            : No\nFormat settings, GMC             : No warppoints\nFormat settings, Matrix          : Default (H.263)\nCodec ID                         : XVID\nCodec ID/Hint                    : XviD\nDuration                         : 1h 31mn\nBit rate                         : 1 328 Kbps\nWidth                            : 652 pixels\nHeight                           : 352 pixels\nDisplay aspect ratio             : 1.852\nFrame rate                       : 29.970 fps\nColor space                      : YUV\nChroma subsampling               : 4:2:0\nBit depth                        : 8 bits\nScan type                        : Progressive\nBits/(Pixel*Frame)               : 0.193\nStream size                      : 872 MiB (87%)\nWriting library                  : XviD 1.1.2 (UTC 2006-11-01)\n\nAudio:\n\nFormat                           : AC-3\nFormat/Info                      : Audio Coding 3\nMode extension                   : CM (complete main)\nCodec ID                         : 2000\nDuration                         : 1h 31mn\nBit rate mode                    : Constant\nBit rate                         : 192 Kbps\nChannel(s)                       : 2 channels\nChannel positions                : Front: L R\nSampling rate                    : 48.0 KHz\nBit depth                        : 16 bits\nStream size                      : 126 MiB (13%)\nAlignment                        : Aligned on interleaves\nInterleave, duration             : 32 ms (0.96 video frame)\nInterleave, preload duration     : 32 ms\n\n","torrent":{"xt":"urn:btih:dec31d52777bda2680222f7b92adf629907392d2","amp;dn":"Cannibal+Holocaust+1980+DVDrip+English+Klam","amp;tr":["udp%3A%2F%2Ftracker.openbittorrent.com%3A80","udp%3A%2F%2Fopen.demonii.com%3A1337","udp%3A%2F%2Ftracker.coppersurfer.tk%3A6969","udp%3A%2F%2Fexodus.desync.com%3A6969"],"infoHash":"dec31d52777bda2680222f7b92adf629907392d2","infoHashBuffer":{"type":"Buffer","data":[222,195,29,82,119,123,218,38,128,34,47,123,146,173,246,41,144,115,146,210]},"announce":[],"urlList":[]}}